HIERARCHY
ROOT root
{
	OFFSET	0	13.1	24.9
	CHANNELS 6  Xposition Yposition Zposition Xrotation Yrotation Zrotation
	JOINT spine_1
	{
		OFFSET	0	9.99999	0
		CHANNELS 3  Xrotation Yrotation Zrotation
		JOINT spine_2
		{
			OFFSET	0	112	-10
			CHANNELS 3  Xrotation Yrotation Zrotation
			JOINT spine_3
			{
				OFFSET	0	206.5	19.3
				CHANNELS 3  Xrotation Yrotation Zrotation
				JOINT spine_4
				{
					OFFSET	0	110.4	14.6
					CHANNELS 3  Xrotation Yrotation Zrotation
					JOINT neck_1
					{
						OFFSET	0	71.8	-50.3
						CHANNELS 3  Xrotation Yrotation Zrotation
						JOINT neck_2
						{
							OFFSET	0	86.2	-25.8
							CHANNELS 3  Xrotation Yrotation Zrotation
							JOINT head_ee
							{
								OFFSET	0	179.8	-8.7
								CHANNELS 3  Xrotation Yrotation Zrotation
								End Site
								{
									OFFSET	1	0	0
								}
							}
						}
					}
					JOINT left_clavicle
					{
						OFFSET	-43.2	22.4	-70.8
						CHANNELS 3  Xrotation Yrotation Zrotation
						JOINT left_shoulder
						{
							OFFSET	-93.9	-5.79999	48.7
							CHANNELS 3  Xrotation Yrotation Zrotation
							JOINT left_elbow
							{
								OFFSET	-291.4	-30.8	15.2
								CHANNELS 3  Xrotation Yrotation Zrotation
								JOINT left_lowarm_twist
								{
									OFFSET	-110.7	-3.89999	13.6
									CHANNELS 3  Xrotation Yrotation Zrotation
									JOINT left_hand
									{
										OFFSET	-110.7	-3.89999	13.6
										CHANNELS 3  Xrotation Yrotation Zrotation
										JOINT left_ee
										{
											OFFSET	-80.8	-5.10001	12.1
											CHANNELS 3  Xrotation Yrotation Zrotation
											End Site
											{
												OFFSET	1	0	0
											}
										}
									}
								}
							}
						}
					}
					JOINT right_clavicle
					{
						OFFSET	43.2	22.4	-70.8
						CHANNELS 3  Xrotation Yrotation Zrotation
						JOINT right_shoulder
						{
							OFFSET	93.9	-5.79999	48.7
							CHANNELS 3  Xrotation Yrotation Zrotation
							JOINT right_elbow
							{
								OFFSET	291.4	-30.8	15.2
								CHANNELS 3  Xrotation Yrotation Zrotation
								JOINT right_lowarm_twist
								{
									OFFSET	110.7	-3.89999	13.6
									CHANNELS 3  Xrotation Yrotation Zrotation
									JOINT right_hand
									{
										OFFSET	110.7	-3.89999	13.6
										CHANNELS 3  Xrotation Yrotation Zrotation
										JOINT right_ee
										{
											OFFSET	80.8	-5.10001	12.1
											CHANNELS 3  Xrotation Yrotation Zrotation
											End Site
											{
												OFFSET	1	0	0
											}
										}
									}
								}
							}
						}
					}
				}
			}
		}
	}
	JOINT left_hip
	{
		OFFSET	-82.8	-127.5	0.300001
		CHANNELS 3  Xrotation Yrotation Zrotation
		JOINT left_knee
		{
			OFFSET	-28.2	-396.7	2.2
			CHANNELS 3  Xrotation Yrotation Zrotation
			JOINT left_ankle
			{
				OFFSET	-11.7	-411.3	35.4
				CHANNELS 3  Xrotation Yrotation Zrotation
				JOINT left_toes
				{
					OFFSET	0	-60	-88.6
					CHANNELS 3  Xrotation Yrotation Zrotation
					JOINT left_foot_ee
					{
						OFFSET	-22.5	-16.5	-42.2
						CHANNELS 3  Xrotation Yrotation Zrotation
						End Site
						{
							OFFSET	1	0	0
						}
					}
				}
			}
		}
	}
	JOINT right_hip
	{
		OFFSET	82.8	-127.5	0.300001
		CHANNELS 3  Xrotation Yrotation Zrotation
		JOINT right_knee
		{
			OFFSET	28.2	-396.7	2.2
			CHANNELS 3  Xrotation Yrotation Zrotation
			JOINT right_ankle
			{
				OFFSET	11.7	-411.3	35.4
				CHANNELS 3  Xrotation Yrotation Zrotation
				JOINT right_toes
				{
					OFFSET	0	-60	-88.6
					CHANNELS 3  Xrotation Yrotation Zrotation
					JOINT right_foot_ee
					{
						OFFSET	22.5	-16.5	-42.2
						CHANNELS 3  Xrotation Yrotation Zrotation
						End Site
						{
							OFFSET	1	0	0
						}
					}
				}
			}
		}
	}
}
MOTION
Frames: 5
Frame Time: 0.02
801.106 681.271 -1609.04 -140.195 80.6604 141.156 4.66246 0.311069 0.486052 4.66255 0.27951 0.50486 4.66494 0.211534 0.536901 4.66466 0.293672 0.496756 -26.4738 9.44081 0.775868 -27.1999 17.8538 5.87654 -0.0 0.0 -0.0 2.80317 19.8428 6.44931 -31.8523 -12.8033 61.1437 0.523897 -14.5488 0.0668752 -38.8708 -2.83188 3.97838 6.52151 15.2027 56.3028 -0.0 0.0 -0.0 11.1374 -19.5073 -19.4061 -3.08278 16.3346 -60.7321 1.62424 38.8171 -0.57229 -42.1702 3.18487 -4.21213 5.85064 -26.7951 -50.4352 0.0 0.0 0.0 25.152 22.4371 -11.564 -0.8072 0.0323947 0.119638 0.942682 -28.5856 -0.17225 -6.47225 0.0 0.0 -0.0 0.0 -0.0 1.72649 5.60423 -5.15252 5.40167 0.259822 0.787682 36.5481 -17.8742 4.65556 -40.1835 0.0 0.0 0.0 0.0 0.0 
801.491 680.432 -1603.09 -135.929 79.3083 136.715 5.04331 0.27179 0.486464 5.04341 0.240285 0.502772 5.04542 0.176425 0.528574 5.04512 0.257688 0.494079 -27.5034 9.76134 1.33962 -28.3026 18.2424 6.76699 -0.0 0.0 -0.0 3.25906 18.7368 7.10046 -30.1315 -13.8047 59.7882 0.69346 -18.9587 0.11579 -36.835 -2.62103 3.82421 6.84827 15.4536 60.6212 -0.0 0.0 -0.0 11.0227 -19.8727 -19.1439 -4.10878 16.0251 -60.8576 1.47306 36.1164 -0.480306 -41.3775 3.09884 -4.15783 6.15056 -25.6043 -53.4839 0.0 0.0 0.0 26.4978 21.4786 -11.0903 -1.0323 0.0411272 0.15308 0.185802 -29.9717 -0.0346699 -3.46832 0.0 0.0 -0.0 0.0 -0.0 3.90283 2.66217 -4.61149 5.96229 0.291026 0.867979 38.7888 -18.9579 4.89235 -40.2875 0.0 0.0 0.0 0.0 0.0 
789.404 681.117 -1598.99 -135.055 78.0279 135.903 5.42014 0.130155 0.289422 5.42018 0.111475 0.297118 5.42072 0.0759852 0.30811 5.4206 0.123692 0.292243 -27.362 9.46266 2.92267 -28.0299 17.0756 8.01919 -0.0 0.0 -0.0 2.8686 17.0147 6.44652 -29.4944 -14.8405 59.6311 0.792966 -21.4454 0.15016 -35.0804 -2.44381 3.68542 7.11027 16.6449 64.9423 -0.0 0.0 -0.0 10.9287 -22.3926 -18.4767 -4.97416 15.5323 -60.6065 1.37092 34.1791 -0.421493 -38.5826 2.8017 -3.95701 6.50408 -24.4349 -57.4892 0.0 0.0 0.0 27.4287 20.7379 -10.9094 -2.50253 0.0949191 0.372296 -0.279939 -29.4221 0.0519152 0.260557 -0.0 -0.0 -0.0 0.0 -0.0 4.14066 2.10525 -4.78531 5.3083 0.254702 0.774278 39.5865 -21.2589 5.02057 -40.2231 0.0 0.0 0.0 0.0 0.0 
786.197 678.641 -1596.72 -128.367 78.1321 129.381 5.52295 0.0794618 0.127 5.52296 0.0712195 0.131799 5.52311 0.0555758 0.139121 5.52309 0.0768498 0.128598 -25.2871 9.24636 4.54833 -25.7565 15.9345 9.01708 -0.0 0.0 -0.0 2.65865 16.4581 6.09489 -28.3046 -16.3463 60.2161 0.897918 -23.9793 0.190693 -34.1871 -2.35524 3.61269 7.23754 17.7804 67.5044 -0.0 0.0 -0.0 10.8329 -24.0875 -17.9658 -5.92408 15.0029 -60.9649 1.36746 34.1118 -0.419551 -38.1783 2.75955 -3.92678 6.76888 -23.4571 -60.8865 0.0 0.0 0.0 29.0485 19.9616 -11.2774 -4.96657 0.172391 0.742488 1.14892 -28.8144 -0.210436 2.95457 -0.0 -0.0 -0.0 0.0 -0.0 4.40958 3.7601 -4.48751 6.29449 0.309887 0.915417 39.7809 -19.3206 4.99283 -40.2067 0.0 0.0 0.0 0.0 0.0 
775.542 682.464 -1588.15 -127.821 77.2409 129.096 5.67062 0.0291941 0.0320233 5.67062 0.0270972 0.0338161 5.67063 0.0231192 0.0366509 5.67063 0.0286174 0.0325397 -26.8081 9.17962 4.86165 -27.3059 15.7732 9.53495 -0.0 0.0 -0.0 2.80024 15.7235 6.28692 -27.3293 -17.6325 60.0212 0.983576 -25.9765 0.226869 -33.7321 -2.31057 3.57513 7.32098 19.1886 69.5221 -0.0 0.0 -0.0 10.6115 -24.0669 -17.6373 -8.61441 14.0771 -60.0518 1.23056 31.3646 -0.345498 -37.0627 2.64434 -3.84182 6.92734 -22.0383 -63.0865 0.0 0.0 0.0 29.6177 19.4297 -11.5766 -7.06419 0.225739 1.05996 2.59096 -30.03 -0.480182 6.7203 -0.0 -0.0 -0.0 0.0 -0.0 4.7118 4.79347 -4.55369 5.68261 0.27536 0.827958 41.0614 -22.0967 5.17983 -40.0005 0.0 0.0 0.0 0.0 0.0 
